# xmcd
#
# Track frame offsets: 
#        150
#        21148
#        40719
#        56111
#        73364
#        90853
#        108111
#        127259
#        146294
#        163460
#        186657
#        208053
#        228168
#        252301
#        275743
#        293388
#
# Disc length: 4215 seconds
#
# Revision: 0
# Processed by: cddbd v1.5.2PL0 Copyright (c) Steve Scherf et al.
# Submitted via: ExactAudioCopyFreeDBPlugin 1.0
#
DISCID=f1107510
DTITLE=Bill LaBounty - Time Starts Now - Late Night Secrets
DYEAR=2011
DGENRE=Pop-Folk
TTITLE0=Dancin' Tonight
TTITLE1=Room
TTITLE2=Crazy
TTITLE3=What About You
TTITLE4=Little Rivers
TTITLE5=Secrets
TTITLE6=Slow Fade
TTITLE7=It Used To Be Me
TTITLE8=Didn't Want To Say Goodbye
TTITLE9=Holding Out
TTITLE10=The Right Direction
TTITLE11=California Turnaround
TTITLE12=Back To Your Star
TTITLE13=Dianne
TTITLE14=Old Habits
TTITLE15=Cinderella
EXTD=
EXTT0=
EXTT1=
EXTT2=
EXTT3=
EXTT4=
EXTT5=
EXTT6=
EXTT7=
EXTT8=
EXTT9=
EXTT10=
EXTT11=
EXTT12=
EXTT13=
EXTT14=
EXTT15=
PLAYORDER=
